<svg id="svg6355" xmlns="http://www.w3.org/2000/svg" viewBox="0 0 1024 91.07"><defs><style>.cls-1{fill:#6d6f71;}</style></defs><path id="path4258" class="cls-1" d="M985.87,72H922.51c-4,0-7.34-3.19-7.34-6.64s3.35-6.8,7.34-6.8h76.56l0,0h.08A13.37,13.37,0,0,1,985.87,72m32.06-29.52c0-17.32-13.49-29-30.68-29H918.18a9.18,9.18,0,0,0-8.81,8.94,9,9,0,0,0,8.81,8.79l70.42,0a9.92,9.92,0,0,1,9.89,10h0l0,0h-74.4c-16.69,0-27.18,9.17-27.18,24.11,0,13,10.8,24.35,27.18,24.35h56.13c25.19,0,37.71-11.3,37.71-30.62,0-.89.16-14.52,0-16.61"/><path id="path4262" class="cls-1" d="M122.89,43.93H25.94V32.14a11.77,11.77,0,0,1,11.7-11.8h85.25a11.8,11.8,0,0,1,0,23.59m21.44,10.18a29.68,29.68,0,0,0-19.41-51.9H35.43A29.54,29.54,0,0,0,6,31.84v49c0,5.14,5,9.42,10.15,9.42s9.94-4.28,9.94-9.42V62h92c10.82,0,15.35,1.18,15.51,12.69v7.22c0,5,4.88,9.18,9.87,9.18s9.65-4.15,9.65-9.18v-10c0-8.3-3-14.06-8.81-17.75"/><path id="path4266" class="cls-1" d="M885.44,13.47h-101A9.68,9.68,0,0,0,775,22.86c0,4.87,4.29,9.61,9.47,9.61h34.24a6,6,0,0,1,5.94,6V80.53c0,5.26,5.17,9.5,10.4,9.5s10.41-4.24,10.41-9.5h0V38.44a5.94,5.94,0,0,1,5.92-6h34.08c5.19,0,9.46-4.74,9.46-9.61a9.67,9.67,0,0,0-9.46-9.39"/><path id="path4270" class="cls-1" d="M733.62,13.44h-47.1a38,38,0,0,0-37.28,38.07v29c0,5.25,5.11,9.6,10.34,9.6s10.1-4.35,10.12-9.6v-29a19,19,0,0,1,18.92-19H731.5a19,19,0,0,1,18.94,19v29c0,5.25,4.77,9.52,10,9.52s10.43-4.27,10.43-9.52v-29a38,38,0,0,0-37.24-38.07"/><path id="path4274" class="cls-1" d="M485.92,12.93c-5.23,0-10.12,4.33-10.12,9.6v29a19,19,0,0,1-18.93,19.07L427,70.6a6.79,6.79,0,0,1-6.76-6.83V22.35c0-5.29-5.15-9.67-10.41-9.67s-10.2,4.38-10.2,9.67l0,41.42a6.78,6.78,0,0,1-6.76,6.81H362.89A19,19,0,0,1,344,51.51v-29c0-5.27-5.09-9.6-10.31-9.6s-10.11,4.33-10.11,9.6V45h0v6.56a37.76,37.76,0,0,0,37.17,37.93h34.82c9.88,0,14.29-5,14.31-5a22.55,22.55,0,0,0,13.66,5.1c7.94,0,35.45-.1,35.45-.1a37.83,37.83,0,0,0,37.25-37.93V45h0V22.53c0-5.27-5.09-9.6-10.32-9.6"/><path id="path4278" class="cls-1" d="M267.75,70.57h-58c-10,0-18.18-8.93-18.18-19s8.14-19,18.18-19h58c10,0,18.18,8.92,18.18,19s-8.14,19-18.18,19m1.49-57.13h-61a38.1,38.1,0,0,0,0,76.2h61a38.1,38.1,0,0,0,0-76.2"/><path id="path4282" class="cls-1" d="M550,31.17l0,0H608c4,0,7.35,3.14,7.35,6.63S612,44.57,608,44.57h-76.9a20.17,20.17,0,0,1,19-13.4M573.21,61.9h33.18c16.7,0,27.17-9.18,27.17-24.12,0-13-10.77-24.34-27.17-24.34H550.25a38.1,38.1,0,0,0,0,76.2h63.33a9.22,9.22,0,0,0,8.82-9,9.05,9.05,0,0,0-8.82-8.78H550.06l-.06,0a20.17,20.17,0,0,1-17.29-9.91h40.5v0"/></svg>